<svg class="left-full top-1/2 absolute z-10 h-full transform -translate-x-full -translate-y-1/2 stroke-current text-white-100 opacity-50" role="presentation" fill="none" xmlns="http://www.w3.org/2000/svg" viewBox="0 0 1164 898"><g opacity=".2" stroke="currentColor" stroke-width="2"><path d="M506.746-19.996L1013.49 486.75 506.746 993.495M1154.37-19.996l506.75 506.746-506.75 506.746"></path><path d="M830.559-19.996L1337.3 486.75 830.559 993.496M1478.18-20l506.75 506.747-506.75 506.745"></path><path d="M668.652-19.996L1175.4 486.75 668.652 993.495M1316.28-19.996l506.74 506.746-506.74 506.746"></path><path d="M992.465-19.996L1499.21 486.75 992.465 993.496"></path><path d="M587.699-19.996L1094.45 486.75 587.699 993.495M1235.32-19.996l506.75 506.746-506.75 506.746"></path><path d="M911.512-19.996L1418.26 486.75 911.512 993.496"></path><path d="M749.605-19.996L1256.35 486.75 749.605 993.495M1397.23-19.996l506.75 506.746-506.75 506.746"></path><path d="M1073.42-19.996l506.74 506.746-506.74 506.746M533.73-19.996l506.75 506.746-506.75 506.745"></path><path d="M1181.36-19.996L1688.1 486.75l-506.74 506.746"></path><path d="M857.543-19.996L1364.29 486.75 857.543 993.496M1505.17-19.999l506.74 506.746-506.74 506.746"></path><path d="M695.637-19.996L1202.38 486.75 695.637 993.495M1343.26-19.996l506.75 506.746-506.75 506.746"></path><path d="M1019.45-19.996L1526.2 486.75l-506.75 506.746"></path><path d="M614.684-19.996L1121.43 486.75 614.684 993.495M1262.31-19.996l506.74 506.746-506.74 506.746"></path><path d="M938.496-19.996L1445.24 486.75 938.496 993.496"></path><path d="M776.59-20l506.75 506.746-506.75 506.746M1424.21-20l506.75 506.746-506.75 506.746"></path><path d="M1100.4-19.996l506.75 506.746-506.75 506.746M520.238-19.996L1026.98 486.75 520.238 993.495"></path><path d="M1167.86-19.996l506.75 506.746-506.75 506.746"></path><path d="M844.051-19.996L1350.8 486.75 844.051 993.496M1491.68-19.999l506.74 506.746-506.74 506.746"></path><path d="M682.145-19.996L1188.89 486.75 682.145 993.495M1329.77-19.996l506.75 506.746-506.75 506.746"></path><path d="M1005.96-19.996L1512.7 486.75l-506.74 506.746"></path><path d="M601.191-19.996L1107.94 486.75 601.191 993.495M1248.82-19.996l506.74 506.746-506.74 506.746"></path><path d="M925.004-19.996L1431.75 486.75 925.004 993.496"></path><path d="M763.098-19.996L1269.84 486.75 763.098 993.495M1410.72-19.996l506.75 506.746-506.75 506.746"></path><path d="M1086.91-19.996l506.75 506.746-506.75 506.746M560.715-19.996L1067.46 486.75 560.715 993.495"></path><path d="M1208.34-19.996l506.75 506.746-506.75 506.746"></path><path d="M884.527-19.996L1391.27 486.75 884.527 993.496M1532.15-19.998l506.75 506.745-506.75 506.746"></path><path d="M722.621-19.996L1229.37 486.75 722.621 993.495M1370.25-19.996l506.74 506.746-506.74 506.746"></path><path d="M1046.43-19.996l506.75 506.746-506.75 506.746"></path><path d="M641.668-19.996L1148.41 486.75 641.668 993.495M1289.29-19.996l506.75 506.746-506.75 506.746"></path><path d="M965.48-19.996l506.75 506.746-506.75 506.746"></path><path d="M803.574-19.996L1310.32 486.75 803.574 993.496M1451.2-20l506.75 506.746-506.75 506.746"></path><path d="M1127.39-19.996l506.74 506.746-506.74 506.746M547.223-19.996L1053.97 486.75 547.223 993.495"></path><path d="M1194.85-19.996l506.74 506.746-506.74 506.746"></path><path d="M871.035-19.996L1377.78 486.75 871.035 993.496M1518.66-19.998l506.75 506.745-506.75 506.746"></path><path d="M709.129-19.996L1215.87 486.75 709.129 993.495M1356.75-19.996L1863.5 486.75l-506.75 506.746"></path><path d="M1032.94-19.996l506.75 506.746-506.75 506.746"></path><path d="M628.176-19.996L1134.92 486.75 628.176 993.495M1275.8-19.996l506.75 506.746-506.75 506.746"></path><path d="M951.988-19.996L1458.73 486.75 951.988 993.496"></path><path d="M790.082-19.996L1296.83 486.75 790.082 993.496M1437.71-20l506.74 506.746-506.74 506.746"></path><path d="M1113.89-19.996l506.75 506.746-506.75 506.746M574.207-19.996L1080.95 486.75 574.207 993.495"></path><path d="M1221.83-19.996l506.75 506.746-506.75 506.746"></path><path d="M898.02-19.996l506.75 506.746-506.75 506.746M1545.64-19.998l506.75 506.746-506.75 506.745"></path><path d="M736.113-19.996L1242.86 486.75 736.113 993.495M1383.74-19.996l506.74 506.746-506.74 506.746"></path><path d="M1059.93-19.996l506.74 506.746-506.74 506.746"></path><path d="M655.16-19.996l506.75 506.746-506.75 506.745M1302.79-19.996l506.74 506.746-506.74 506.746"></path><path d="M978.973-19.996L1485.72 486.75 978.973 993.496"></path><path d="M817.066-19.996L1323.81 486.75 817.066 993.496M1464.69-20l506.75 506.747-506.75 506.745"></path><path d="M1140.88-19.996l506.74 506.746-506.74 506.746"></path></g></svg>