<svg class="w-5 h-5" width="24" height="24" xmlns="http://www.w3.org/2000/svg" viewBox="0 0 24 24" fill="none"><title>Pricewaterhouse Coopers Logo 1</title><path d="M24.0003 10.7136H15.2715V8.47925H24.0003V10.7136Z" fill="#E669A2"></path><path d="M22.8675 10.7137H15.2715V5.12646H22.8675V10.7137Z" fill="#F3BE26"></path><path d="M19.7283 10.7137H15.2715V2.89209H19.7283V10.7137Z" fill="#EE9C34"></path><path d="M20.6043 10.7136H15.2715V3.76562H20.6067V10.7136H20.6043Z" fill="#F3BC87"></path><path d="M15.2686 3.76562V10.7136H19.7278V3.76562H15.2686Z" fill="#E3721C"></path><path d="M10.7998 10.7136H15.2686V11.832H10.7998V10.7136Z" fill="#AD1B02"></path><path d="M15.2686 5.12402V10.7136H20.6062V5.12402H15.2686Z" fill="#E88D14"></path><path d="M15.2686 5.12402V10.7136H19.7278V5.12402H15.2686Z" fill="#D85604"></path><path d="M18.0579 10.7136H15.2715V7.3584H18.0579V10.7136Z" fill="#C14303"></path><path d="M15.2686 8.48169V10.7137H22.867V8.48169H15.2686Z" fill="#DB4E18"></path><path d="M15.2686 8.48169V10.7137H20.6062V8.48169H15.2686Z" fill="#D1390D"></path><path d="M15.2686 8.48169V10.7137H19.7278V8.48169H15.2686Z" fill="#C22303"></path><path d="M15.2686 8.48169V10.7137H18.0598V8.48169H15.2686Z" fill="#AD1B02"></path><path d="M16.2425 14.9231C15.4817 15.0575 15.0761 15.6335 15.0761 16.6295C15.0761 17.6447 15.6161 18.3191 16.4105 18.3191C16.7993 18.3191 17.1377 18.1847 17.8481 17.8295C17.8481 18.6575 17.8481 18.6575 17.8481 18.6575C16.9865 19.0631 16.4801 19.1639 15.8033 19.1639C15.0425 19.1639 14.5025 18.9791 14.0801 18.5207C13.6409 18.0815 13.4033 17.5055 13.4033 16.8479C13.4033 15.4103 14.4857 14.4143 16.0577 14.4143C17.0897 14.4143 17.8145 14.9039 17.8145 15.5975C17.8145 16.0535 17.4761 16.3751 16.9865 16.3751C16.7321 16.3751 16.5305 16.2911 16.2425 16.1375" fill="black"></path><path d="M12.4385 16.8479C13.1321 15.9863 13.3841 15.6311 13.3841 15.2087C13.3841 14.7863 13.0457 14.4143 12.5729 14.4143C12.3017 14.4143 12.0497 14.5655 11.9297 14.7023C11.9297 16.4759 11.9297 16.4759 11.9297 16.4759C10.7969 17.9975 10.7969 17.9975 10.7969 17.9975C10.7969 14.5487 10.7969 14.5487 10.7969 14.5487C9.71453 14.5487 9.71453 14.5487 9.71453 14.5487C7.92413 17.5055 7.92413 17.5055 7.92413 17.5055C7.92413 14.5487 7.92413 14.5487 7.92413 14.5487C7.31453 14.5487 7.31453 14.5487 7.31453 14.5487C5.67773 14.9231 5.67773 14.9231 5.67773 14.9231C5.67773 15.3455 5.67773 15.3455 5.67773 15.3455C6.57293 15.4295 6.57293 15.4295 6.57293 15.4295C6.57293 19.0967 6.57293 19.0967 6.57293 19.0967C7.70573 19.0967 7.70573 19.0967 7.70573 19.0967C9.42893 16.2575 9.42893 16.2575 9.42893 16.2575C9.42893 19.0967 9.42893 19.0967 9.42893 19.0967C10.6961 19.0967 10.6961 19.0967 10.6961 19.0967" fill="black"></path><path d="M2.24835 18.523C2.38275 18.523 2.41635 18.523 2.50275 18.523C3.41475 18.523 3.92355 17.9662 3.92355 16.8502C3.92355 15.9214 3.51795 15.4126 2.75715 15.4126C2.65635 15.4126 2.50275 15.4294 2.25075 15.4798L2.24835 18.523ZM2.24835 20.5174C2.99235 20.6854 2.99235 20.6854 2.99235 20.6854C2.99235 21.1078 2.99235 21.1078 2.99235 21.1078C0.0691528 21.1078 0.0691528 21.1078 0.0691528 21.1078C0.0691528 20.6854 0.0691528 20.6854 0.0691528 20.6854C0.745953 20.5174 0.745953 20.5174 0.745953 20.5174C0.745953 15.4126 0.745953 15.4126 0.745953 15.4126C0.00195312 15.4126 0.00195312 15.4126 0.00195312 15.4126C0.00195312 14.9902 0.00195312 14.9902 0.00195312 14.9902C1.77555 14.4502 1.77555 14.4502 1.77555 14.4502C2.24835 14.4502 2.24835 14.4502 2.24835 14.4502C2.24835 15.0598 2.24835 15.0598 2.24835 15.0598C3.07635 14.5534 3.36435 14.4694 3.80355 14.4694C4.78275 14.4694 5.52675 15.3814 5.52675 16.6486C5.52675 18.103 4.53075 19.099 3.00915 19.099C2.84115 19.099 2.55315 19.0822 2.24835 19.0654" fill="black"></path></svg>