<svg class="w-5 h-5" width="32" height="32" xmlns="http://www.w3.org/2000/svg" viewBox="0 0 32 32" fill="none"><title>Lock Simple</title><path d="M25.9993 11H5.99927C5.44698 11 4.99927 11.4477 4.99927 12V26C4.99927 26.5523 5.44698 27 5.99927 27H25.9993C26.5516 27 26.9993 26.5523 26.9993 26V12C26.9993 11.4477 26.5516 11 25.9993 11Z" stroke="black" stroke-width="2"></path><path d="M11.4993 11V6.5C11.4993 5.30653 11.9734 4.16193 12.8173 3.31802C13.6612 2.47411 14.8058 2 15.9993 2C17.1927 2 18.3373 2.47411 19.1812 3.31802C20.0252 4.16193 20.4993 5.30653 20.4993 6.5V11" stroke="black" stroke-width="2"></path></svg>