<svg class="h-8 hidden md:block" alt="Amazon logo white edited" xmlns="http://www.w3.org/2000/svg" fill="none" viewBox="0 0 81 30"><title>Amazon logo white edited</title><g clip-path="url(#yzzokndtnb-clip0)" fill-rule="evenodd" clip-rule="evenodd" fill="#fff"><path d="M48.996 24.768c-4.575 3.412-11.23 5.23-16.97 5.23a30.614 30.614 0 01-20.739-7.968c-.416-.392-.055-.924.473-.613a40.878 40.878 0 0036.573 2.265c.774-.312 1.44.527.663 1.086z"></path><path d="M50.91 22.586c-.582-.754-3.883-.363-5.35-.167-.446.056-.527-.335-.111-.613 2.633-1.875 6.931-1.315 7.431-.699s-.139 4.979-2.606 7.048c-.388.308-.748.14-.582-.28.58-1.43 1.8-4.535 1.218-5.289zM45.67 8.63V6.812a.427.427 0 01.446-.45h8.04a.46.46 0 01.473.45V8.35c0 .252-.221.587-.608 1.147l-4.159 5.986a8.968 8.968 0 014.576.976.832.832 0 01.416.7v1.927c0 .28-.277.587-.582.42a9.108 9.108 0 00-8.485.028.432.432 0 01-.535-.215.441.441 0 01-.047-.204V17.27c-.027-.432.08-.862.305-1.23l4.825-6.965h-4.192a.442.442 0 01-.435-.268.452.452 0 01-.038-.178zM16.36 19.9h-2.437a.498.498 0 01-.446-.419V6.84a.468.468 0 01.145-.323.46.46 0 01.328-.126h2.274a.45.45 0 01.446.42V8.46h.055a3.26 3.26 0 011.208-1.732 3.212 3.212 0 012.009-.618c1.525 0 2.498.755 3.161 2.35a3.503 3.503 0 011.31-1.733 3.454 3.454 0 012.073-.617 3.44 3.44 0 012.828 1.399c.776 1.063.608 2.601.608 3.972v8a.46.46 0 01-.473.45h-2.44a.475.475 0 01-.446-.45V12.77c.037-.793.019-1.587-.055-2.377a1.3 1.3 0 00-.5-.842 1.279 1.279 0 00-.943-.248 1.63 1.63 0 00-1.468 1.036 7.816 7.816 0 00-.222 2.432v6.713a.467.467 0 01-.473.45h-2.44a.475.475 0 01-.447-.45v-6.711c0-1.4.222-3.497-1.497-3.497-1.748 0-1.688 2.013-1.688 3.497v6.713a.464.464 0 01-.47.416zM61.529 6.113c3.63 0 5.604 3.133 5.604 7.131 0 3.86-2.165 6.94-5.604 6.94-3.549 0-5.49-3.134-5.49-7.049 0-3.945 1.941-7.022 5.49-7.022zm.028 2.6c-1.803 0-1.91 2.49-1.91 4.029 0 1.539-.029 4.835 1.885 4.835 1.885 0 1.996-2.656 1.996-4.279.034-1.13-.088-2.26-.36-3.356a1.568 1.568 0 00-.58-.916 1.544 1.544 0 00-1.031-.314v.002zM71.816 19.9h-2.438a.475.475 0 01-.445-.449V6.783a.484.484 0 01.472-.42h2.275a.47.47 0 01.445.364v1.927h.055c.693-1.734 1.636-2.544 3.328-2.544a3.206 3.206 0 011.624.357c.5.26.926.648 1.232 1.125.637 1.007.637 2.713.637 3.944v7.968a.46.46 0 01-.473.391H76.09a.502.502 0 01-.446-.39v-6.88c0-1.399.166-3.412-1.524-3.412a1.595 1.595 0 00-.853.295c-.25.178-.445.425-.561.712a5.851 5.851 0 00-.388 2.405v6.825a.494.494 0 01-.502.45zm-32.552-6.04c.09.9-.063 1.81-.445 2.63a1.974 1.974 0 01-.69.794 1.95 1.95 0 01-.998.324c-.946 0-1.498-.728-1.498-1.79 0-2.098 1.858-2.49 3.63-2.49l.002.532zm2.44 6.014a.5.5 0 01-.581.055 6.161 6.161 0 01-1.414-1.65 4.862 4.862 0 01-1.798 1.38 4.821 4.821 0 01-2.222.41c-2.052 0-3.66-1.285-3.66-3.831a4.214 4.214 0 01.672-2.43 4.16 4.16 0 011.934-1.598c1.332-.587 3.189-.7 4.602-.867v-.308a3.043 3.043 0 00-.305-1.79 1.644 1.644 0 00-1.358-.642 1.836 1.836 0 00-1.264.364 1.865 1.865 0 00-.704 1.12c-.055.224-.19.45-.416.45l-2.356-.252a.425.425 0 01-.357-.332.433.433 0 01-.004-.172c.555-2.908 3.133-3.776 5.463-3.776a5.456 5.456 0 013.688 1.23c1.192 1.118 1.08 2.629 1.08 4.251v3.832c.015.853.341 1.67.916 2.294.166.224.19.504 0 .643-.527.42-1.414 1.202-1.911 1.622l-.004-.003zM7.21 13.86a5.03 5.03 0 01-.445 2.63 1.974 1.974 0 01-.69.795 1.95 1.95 0 01-.998.323c-.945 0-1.497-.727-1.497-1.79 0-2.097 1.858-2.488 3.63-2.488v.53zm2.468 6.014a.499.499 0 01-.582.056 6.16 6.16 0 01-1.414-1.65 4.862 4.862 0 01-1.798 1.38 4.82 4.82 0 01-2.222.41c-2.051 0-3.66-1.285-3.66-3.831a4.214 4.214 0 01.673-2.43 4.158 4.158 0 011.934-1.598c1.331-.588 3.188-.7 4.602-.867v-.308a3.042 3.042 0 00-.305-1.79 1.645 1.645 0 00-1.359-.642 1.84 1.84 0 00-1.263.365 1.865 1.865 0 00-.703 1.12c-.055.223-.191.449-.416.449l-2.356-.252a.423.423 0 01-.358-.332.434.434 0 01-.003-.172c.555-2.909 3.133-3.776 5.462-3.776a5.457 5.457 0 013.688 1.23c1.193 1.118 1.08 2.629 1.08 4.251v3.832c.016.852.342 1.67.916 2.294.167.224.192.504 0 .642-.526.42-1.413 1.203-1.91 1.623l-.006-.004z"></path></g><defs><clipPath id="yzzokndtnb-clip0"><path fill="#fff" transform="translate(0 6)" d="M0 0h79v24H0z"></path></clipPath></defs></svg>