<svg class="h-6" width="152" height="26" alt="4 point 8 out of 5 stars white small" xmlns="http://www.w3.org/2000/svg" viewBox="0 0 152 26" fill="none" style="margin-top: -5px;"><title>4 point 8 out of 5 stars white small</title><path d="M14.5466 20.842L20.851 24.8362C21.6569 25.3468 22.6574 24.5874 22.4183 23.6467L20.5968 16.4814C20.5455 16.2819 20.5516 16.0719 20.6143 15.8756C20.6771 15.6793 20.7939 15.5048 20.9515 15.3719L26.6049 10.6665C27.3477 10.0482 26.9643 8.8154 26.0099 8.7535L18.627 8.2743C18.4281 8.2601 18.2374 8.1897 18.077 8.0713C17.9166 7.9529 17.7931 7.7914 17.721 7.6055L14.9674 0.671401C14.8926 0.474131 14.7595 0.304301 14.5858 0.184461C14.4122 0.0646109 14.2062 0.000431061 13.9952 0.000431061C13.7842 0.000431061 13.5782 0.0646109 13.4046 0.184461C13.2309 0.304301 13.0978 0.474131 13.023 0.671401L10.2694 7.6055C10.1973 7.7914 10.0738 7.9529 9.91337 8.0713C9.75297 8.1897 9.56227 8.2601 9.36337 8.2743L1.98037 8.7535C1.02599 8.8154 0.642572 10.0482 1.38542 10.6665L7.03882 15.3719C7.19637 15.5048 7.31324 15.6793 7.37599 15.8756C7.43873 16.0719 7.44481 16.2819 7.39352 16.4814L5.70432 23.1264C5.41736 24.2553 6.61801 25.1665 7.58502 24.5538L13.4437 20.842C13.6085 20.7371 13.7998 20.6814 13.9951 20.6814C14.1904 20.6814 14.3818 20.7371 14.5466 20.842Z" fill="white"></path><path d="M45.5515 21.144L51.8559 25.1382C52.6618 25.6488 53.6623 24.8894 53.4232 23.9487L51.6017 16.7834C51.5504 16.5839 51.5565 16.3739 51.6192 16.1776C51.682 15.9813 51.7988 15.8068 51.9564 15.6739L57.6098 10.9685C58.3526 10.3502 57.9692 9.1174 57.0148 9.0555L49.6319 8.5763C49.433 8.5621 49.2423 8.4917 49.0819 8.3733C48.9215 8.2549 48.798 8.0934 48.7259 7.9075L45.9723 0.973401C45.8975 0.776131 45.7644 0.606301 45.5907 0.486461C45.4171 0.366611 45.2111 0.302431 45.0001 0.302431C44.7891 0.302431 44.5831 0.366611 44.4095 0.486461C44.2358 0.606301 44.1027 0.776131 44.0279 0.973401L41.2743 7.9075C41.2022 8.0934 41.0787 8.2549 40.9183 8.3733C40.7579 8.4917 40.5672 8.5621 40.3683 8.5763L32.9853 9.0555C32.0309 9.1174 31.6475 10.3502 32.3903 10.9685L38.0437 15.6739C38.2013 15.8068 38.3181 15.9813 38.3809 16.1776C38.4436 16.3739 38.4497 16.5839 38.3984 16.7834L36.7092 23.4284C36.4222 24.5573 37.6229 25.4685 38.5899 24.8558L44.4486 21.144C44.6134 21.0391 44.8047 20.9834 45 20.9834C45.1953 20.9834 45.3867 21.0391 45.5515 21.144Z" fill="white"></path><path d="M76.5515 21.144L82.8559 25.1382C83.6618 25.6488 84.6623 24.8894 84.4232 23.9487L82.6017 16.7834C82.5504 16.5839 82.5565 16.3739 82.6192 16.1776C82.682 15.9813 82.7988 15.8068 82.9564 15.6739L88.6098 10.9685C89.3526 10.3502 88.9692 9.1174 88.0148 9.0555L80.6319 8.5763C80.433 8.5621 80.2423 8.4917 80.0819 8.3733C79.9215 8.2549 79.798 8.0934 79.7259 7.9075L76.9723 0.973401C76.8975 0.776131 76.7644 0.606301 76.5907 0.486461C76.4171 0.366611 76.2111 0.302431 76.0001 0.302431C75.7891 0.302431 75.5831 0.366611 75.4095 0.486461C75.2358 0.606301 75.1027 0.776131 75.0279 0.973401L72.2743 7.9075C72.2022 8.0934 72.0787 8.2549 71.9183 8.3733C71.7579 8.4917 71.5672 8.5621 71.3683 8.5763L63.9853 9.0555C63.0309 9.1174 62.6475 10.3502 63.3903 10.9685L69.0437 15.6739C69.2013 15.8068 69.3181 15.9813 69.3809 16.1776C69.4436 16.3739 69.4497 16.5839 69.3984 16.7834L67.7092 23.4284C67.4222 24.5573 68.6229 25.4685 69.5899 24.8558L75.4486 21.144C75.6134 21.0391 75.8047 20.9834 76 20.9834C76.1953 20.9834 76.3867 21.0391 76.5515 21.144Z" fill="white"></path><path d="M107.551 21.144L113.856 25.1382C114.662 25.6488 115.662 24.8894 115.423 23.9487L113.602 16.7834C113.55 16.5839 113.556 16.3739 113.619 16.1776C113.682 15.9813 113.799 15.8068 113.956 15.6739L119.61 10.9685C120.353 10.3502 119.969 9.1174 119.015 9.0555L111.632 8.5763C111.433 8.5621 111.242 8.4917 111.082 8.3733C110.921 8.2549 110.798 8.0934 110.726 7.9075L107.972 0.973401C107.897 0.776131 107.764 0.606301 107.591 0.486461C107.417 0.366611 107.211 0.302431 107 0.302431C106.789 0.302431 106.583 0.366611 106.409 0.486461C106.236 0.606301 106.103 0.776131 106.028 0.973401L103.274 7.9075C103.202 8.0934 103.079 8.2549 102.918 8.3733C102.758 8.4917 102.567 8.5621 102.368 8.5763L94.9853 9.0555C94.0309 9.1174 93.6475 10.3502 94.3903 10.9685L100.044 15.6739C100.201 15.8068 100.318 15.9813 100.381 16.1776C100.444 16.3739 100.45 16.5839 100.398 16.7834L98.7092 23.4284C98.4222 24.5573 99.6229 25.4685 100.59 24.8558L106.449 21.144C106.613 21.0391 106.805 20.9834 107 20.9834C107.195 20.9834 107.387 21.0391 107.551 21.144Z" fill="white"></path><path d="M138.484 21.2494L138.485 21.2496L144.789 25.2438C145.699 25.8201 146.809 24.9587 146.544 23.9179L144.723 16.7526L144.723 16.7523C144.677 16.5756 144.683 16.3896 144.738 16.2157C144.794 16.0419 144.897 15.8875 145.037 15.7698C145.037 15.7697 145.037 15.7696 145.037 15.7695L150.69 11.0646L150.61 10.9685L150.69 11.0646C151.515 10.3778 151.096 9.00035 150.023 8.93076L142.641 8.45162C142.641 8.45161 142.64 8.45159 142.64 8.45158C142.465 8.439 142.297 8.37698 142.156 8.27273C142.015 8.16838 141.906 8.02607 141.842 7.8623L141.842 7.86137L139.089 0.929081C139.089 0.928768 139.089 0.928455 139.089 0.928141C139.005 0.707529 138.856 0.517624 138.662 0.383571C138.467 0.249314 138.236 0.177429 138 0.177429C137.764 0.177429 137.533 0.249315 137.338 0.383571C137.144 0.517623 136.995 0.707526 136.911 0.928136L134.158 7.86136L134.158 7.8623C134.094 8.02608 133.985 8.16839 133.844 8.27273C133.703 8.37698 133.535 8.439 133.36 8.45158C133.36 8.45159 133.36 8.45161 133.359 8.45162L125.977 8.93076C124.904 9.00035 124.485 10.3778 125.31 11.0646L130.963 15.7694C130.963 15.7695 130.963 15.7696 130.963 15.7697C131.103 15.8875 131.206 16.0419 131.262 16.2157C131.317 16.3896 131.323 16.5756 131.277 16.7523L131.277 16.7526L129.588 23.3976C129.276 24.6266 130.586 25.6398 131.657 24.9614L137.516 21.2496L137.516 21.2494C137.66 21.1573 137.828 21.1084 138 21.1084C138.172 21.1084 138.34 21.1573 138.484 21.2494Z" fill="url(#plggtwuthd-paint0_linear_1187_8383)" stroke="white" stroke-width="0.25"></path><defs><linearGradient id="plggtwuthd-paint0_linear_1187_8383" x1="127.5" y1="25" x2="142.5" y2="25" gradientUnits="userSpaceOnUse"><stop offset="0.9999" stop-color="white"></stop><stop offset="1" stop-color="white" stop-opacity="0"></stop></linearGradient></defs></svg>