<svg id="vrcbgvmboe-Layer_2" class="w-5 h-5" xmlns="http://www.w3.org/2000/svg" data-name="Layer 2" viewBox="0 0 23.8 23.8"><title>Chase icon</title><defs><style>.vrcbgvmboe-cls-1{fill:#126bc5;stroke-width:0px}</style></defs><g id="vrcbgvmboe-Layer_1-2" data-name="Layer 1"><g><path class="vrcbgvmboe-cls-1" d="m8.5,0c-.5,0-.8.4-.8.8v5.9h15.6L16.2,0s-7.7,0-7.7,0Z"></path><path class="vrcbgvmboe-cls-1" d="m23.8,8.5c0-.5-.4-.8-.8-.8h-5.9v15.6l6.7-7.1s0-7.7,0-7.7Z"></path><path class="vrcbgvmboe-cls-1" d="m15.3,23.8c.5,0,.8-.4.8-.8v-5.9H.5l7.1,6.7s7.7,0,7.7,0Z"></path><path class="vrcbgvmboe-cls-1" d="m0,15.3c0,.5.4.8.8.8h5.9V.6L0,7.7v7.6Z"></path></g></g></svg>