<svg class="w-5 h-5" width="32" height="32" xmlns="http://www.w3.org/2000/svg" viewBox="0 0 32 32" fill="none"><title>AI ML brain icon</title><path d="M16 22C16 24.3 17.9 26.3 20.3 26.3C22.7 26.3 24.6 24.4 24.6 22V20.4" stroke="black" stroke-width="2" stroke-miterlimit="10"></path><path d="M24.5 20.5C25.1 20.3 25.7 20 26.2 19.6C27.1 18.8 27.8 17.7 28 16.5C28.2 15.3 28 14.1 27.4 13C26.8 12 25.9 11.2 24.7 10.7V10C24.7 8.90001 24.2 7.80001 23.4 7.00001C22.6 6.20001 21.5 5.70001 20.4 5.70001C19.3 5.70001 18.2 6.20001 17.4 7.00001C16.5 7.80001 16 8.90001 16 10" stroke="black" stroke-width="2" stroke-linejoin="round"></path><path d="M20.1 10.1C20.1 12.4 22 14.4 24.4 14.4" stroke="black" stroke-miterlimit="10"></path><path d="M16 22C16 24.3 14.1 26.3 11.7 26.3C9.3 26.3 7.5 24.4 7.5 22V20.4" stroke="black" stroke-width="2" stroke-miterlimit="10"></path><path d="M16 10C16 8.90001 15.5 7.80001 14.7 7.00001C13.9 6.20001 12.8 5.70001 11.7 5.70001C10.6 5.70001 9.49999 6.20001 8.69999 7.00001C7.89999 7.80001 7.39999 8.90001 7.39999 10V10.7C6.29999 11.1 5.29999 11.9 4.69999 13C4.09999 14 3.89999 15.3 4.09999 16.5C4.29999 17.7 4.89999 18.8 5.89999 19.6C6.39999 20 6.99999 20.3 7.59999 20.5" stroke="black" stroke-width="2" stroke-linejoin="round"></path><path d="M7.5 20C8 20.2 8.6 20.3 9.2 20.3H10.9" stroke="black" stroke-miterlimit="10"></path><path d="M11.9 10.1C11.9 12.4 9.99999 14.4 7.59999 14.4" stroke="black" stroke-miterlimit="10"></path><path d="M16 10V22" stroke="black" stroke-width="2" stroke-miterlimit="10"></path><path d="M21.2 20.2H22.9C23.5 20.2 24 20.1 24.6 19.9" stroke="black" stroke-miterlimit="10"></path><path d="M20.7 17.8C18.4 17.8 16.4 19.7 16.4 22.1" stroke="black" stroke-miterlimit="10"></path><path d="M11.3 17.8C13.6 17.8 15.6 19.7 15.6 22.1" stroke="black" stroke-miterlimit="10"></path></svg>