<svg class="translate-x-1/4 bottom-0 right-0 z-10 h-full transform scale-150 stroke-current text-white-100 md:hidden absolute opacity-25" role="presentation" xmlns="http://www.w3.org/2000/svg" fill="none" viewBox="0 0 375 1057"><mask id="a" maskUnits="userSpaceOnUse" x="-763" y="-91" width="2322" height="1148"><g opacity=".2" stroke="currentColor" stroke-width="2"><path d="M-190.254-89.996L382.491 482.75l-572.745 572.75M541.719-89.996L1114.46 482.75 541.719 1055.5"></path><path d="M175.732-89.996L748.478 482.75 175.732 1055.5M907.706-89.999l572.744 572.746-572.744 572.743"></path><path d="M-7.261-89.996L565.484 482.75-7.261 1055.5M724.713-89.996L1297.46 482.75 724.713 1055.5"></path><path d="M358.725-89.996L931.471 482.75 358.725 1055.5"></path><path d="M-98.758-89.996L473.988 482.75-98.758 1055.5M633.216-89.996L1205.96 482.75 633.216 1055.5"></path><path d="M267.229-89.996L839.974 482.75 267.229 1055.5"></path><path d="M84.235-89.996L656.981 482.75 84.235 1055.5M816.209-89.996L1388.95 482.75 816.209 1055.5"></path><path d="M450.223-89.996L1022.97 482.75 450.223 1055.5M-159.755-89.996L412.99 482.75l-572.745 572.75"></path><path d="M572.218-89.996L1144.96 482.75 572.218 1055.5"></path><path d="M206.231-89.996L778.977 482.75 206.231 1055.5M938.205-89.999l572.745 572.746-572.745 572.743"></path><path d="M23.238-89.996L595.983 482.75 23.238 1055.5M755.211-89.996L1327.96 482.75 755.211 1055.5"></path><path d="M389.224-89.996L961.97 482.75 389.224 1055.5"></path><path d="M-68.259-89.996L504.487 482.75-68.259 1055.5M663.715-89.996L1236.46 482.75 663.715 1055.5"></path><path d="M297.728-89.996L870.473 482.75 297.728 1055.5"></path><path d="M114.734-90L687.48 482.746 114.734 1055.49M846.708-90l572.742 572.746-572.742 572.744"></path><path d="M480.721-89.996L1053.47 482.75 480.721 1055.5M-175.005-89.996L397.741 482.75l-572.746 572.75"></path><path d="M556.969-89.996L1129.71 482.75 556.969 1055.5"></path><path d="M190.981-89.996L763.727 482.75 190.981 1055.5M922.955-89.999L1495.7 482.747 922.955 1055.49"></path><path d="M7.988-89.996L580.734 482.75 7.988 1055.5M739.962-89.996L1312.71 482.75 739.962 1055.5"></path><path d="M373.975-89.996L946.72 482.75 373.975 1055.5"></path><path d="M-83.508-89.996L489.237 482.75-83.508 1055.5M648.465-89.996L1221.21 482.75 648.465 1055.5"></path><path d="M282.478-89.996L855.224 482.75 282.478 1055.5"></path><path d="M99.485-89.996L672.23 482.75 99.485 1055.5M831.459-89.996L1404.2 482.75 831.459 1055.5"></path><path d="M465.472-89.996L1038.22 482.75 465.472 1055.5M-129.257-89.996L443.489 482.75l-572.746 572.75"></path><path d="M602.717-89.996L1175.46 482.75 602.717 1055.5"></path><path d="M236.73-89.996L809.476 482.75 236.73 1055.5"></path><path d="M53.737-89.996L626.482 482.75 53.737 1055.5M785.71-89.996l572.75 572.746-572.75 572.75"></path><path d="M419.724-89.996L992.469 482.75 419.724 1055.5"></path><path d="M-37.76-89.996L534.986 482.75-37.76 1055.5M694.213-89.996L1266.96 482.75 694.213 1055.5"></path><path d="M328.227-89.996L900.972 482.75 328.227 1055.5"></path><path d="M145.233-89.996L717.979 482.75 145.233 1055.5M877.207-90l572.743 572.746-572.743 572.744"></path><path d="M511.22-89.996l572.75 572.746-572.75 572.75M-144.506-89.996L428.24 482.75l-572.746 572.75"></path><path d="M587.467-89.996L1160.21 482.75 587.467 1055.5"></path><path d="M221.48-89.996L794.226 482.75 221.48 1055.5"></path><path d="M38.487-89.996L611.233 482.75 38.487 1055.5M770.461-89.996L1343.21 482.75 770.461 1055.5"></path><path d="M404.474-89.996L977.22 482.75 404.474 1055.5"></path><path d="M-53.01-89.996L519.737 482.75-53.009 1055.5M678.964-89.996L1251.71 482.75 678.964 1055.5"></path><path d="M312.977-89.996L885.723 482.75 312.977 1055.5"></path><path d="M129.984-89.996L702.729 482.75 129.984 1055.5M861.957-90L1434.7 482.746 861.957 1055.49"></path><path d="M495.971-89.996L1068.72 482.75 495.971 1055.5M-114.007-89.996L458.738 482.75l-572.745 572.75"></path><path d="M617.966-89.996L1190.71 482.75 617.966 1055.5"></path><path d="M251.979-89.996L824.725 482.75 251.979 1055.5"></path><path d="M68.986-89.996L641.732 482.75 68.986 1055.5M800.96-89.996l572.75 572.746-572.75 572.75"></path><path d="M434.973-89.996L1007.72 482.75 434.973 1055.5"></path><path d="M-22.51-89.996L550.234 482.75-22.511 1055.5M709.463-89.996L1282.21 482.75 709.463 1055.5"></path><path d="M343.476-89.996L916.221 482.75 343.476 1055.5"></path><path d="M160.483-89.996L733.228 482.75 160.483 1055.5M892.456-90L1465.2 482.747 892.456 1055.49"></path><path d="M526.47-89.996l572.75 572.746-572.75 572.75"></path></g></mask><g mask="url(#a)"><path fill="#fff" d="M-61.119 483.033h1701.01v619.373H-61.119z"></path></g></svg>