<svg class="h-8 hidden md:block" alt="Facebook logo edited" xmlns="http://www.w3.org/2000/svg" fill="none" viewBox="0 0 129 30"><title>Facebook logo edited</title><g clip-path="url(#ptjarurgfo-clip0)" fill="#fff"><path d="M11.092 6.472V8.26c0 .077-.078.155-.156.233H3.33v3.575h6.288c.077 0 .155.077.233.155v1.787c-.078.078-.156.156-.233.156H3.329v5.362c0 .077-.078.155-.155.233H1.233c-.078 0-.155-.078-.233-.156V6.472c0-.077.078-.155.155-.233h9.704c.155 0 .233.078.233.233zM26.617 19.76h-2.096c-.077 0-.233-.077-.233-.155-.31-1.088-.62-2.253-1.009-3.419h-6.443c-.388 1.166-.698 2.331-1.009 3.42 0 .077-.078.155-.233.155h-1.94c-.156 0-.233-.078-.156-.233a77.638 77.638 0 014.89-13.056c.078-.155.156-.233.311-.233h2.795c.155 0 .31.078.388.233 1.94 4.197 3.649 8.548 4.89 13.056.078.155 0 .233-.155.233zm-4.036-5.75a96.002 96.002 0 00-2.252-5.673h-.465a95.864 95.864 0 00-2.252 5.673h4.969zm7.452-.932c0-4.197 2.795-7.072 6.676-7.072h.31c2.252-.078 4.27 1.088 5.357 3.03.078.156 0 .234-.078.234l-1.708.855c-.077.155-.232.078-.31 0-.699-1.244-1.94-1.943-3.338-1.865h-.31c-2.485 0-4.192 1.943-4.192 4.818 0 2.875 1.707 4.74 4.191 4.74h.31c1.243.078 2.485-.389 3.261-1.399.078-.078.233-.155.31-.078l1.709.778c.077 0 .077.077.077.155s0 .078-.077.155a6.052 6.052 0 01-5.357 2.487h-.31c-3.882.078-6.521-2.642-6.521-6.838zm27.636 4.662v1.788c0 .077-.078.155-.156.233H47.422c-.078 0-.155-.078-.233-.156V6.472c0-.077.078-.155.155-.233h10.014c.078 0 .155.078.233.156v1.787c0 .078-.078.155-.155.233h-7.918v3.497h6.365c.078 0 .155.078.233.155v1.788c0 .077-.078.155-.155.233h-6.366v3.497h7.996s.078.078.078.155zm17.388-1.71c0 2.332-1.785 3.73-4.968 3.73h-6.598c-.078 0-.155-.077-.233-.155V6.472c0-.077.078-.155.155-.233h6.055c3.105 0 4.813 1.244 4.813 3.497.078 1.399-.854 2.642-2.251 2.875 2.096.467 3.027 1.788 3.027 3.42zm-5.589-7.693H65.51v3.575h3.882c1.707 0 2.561-.544 2.561-1.787 0-1.244-.776-1.788-2.484-1.788zm3.26 7.46c0-1.243-.853-1.787-2.639-1.787h-4.58v3.653h4.503c1.94-.078 2.717-.622 2.717-1.866zM79.094 13c-.233-3.652 2.562-6.76 6.21-6.994h1.01c3.648-.155 6.753 2.642 6.909 6.295V13c.232 3.652-2.562 6.76-6.21 6.994h-1.01c-3.648.155-6.754-2.642-6.909-6.217V13zm7.22 4.818c2.794 0 4.502-1.865 4.502-4.818 0-2.953-1.785-4.818-4.502-4.818h-.31c-2.796 0-4.503 1.865-4.503 4.818 0 2.953 1.707 4.818 4.502 4.818h.31zM97.104 13c0-4.04 2.717-6.994 6.909-6.994h.31c3.649-.155 6.754 2.642 6.909 6.295V13c.233 3.652-2.561 6.76-6.21 6.994h-1.009c-4.192 0-6.91-2.953-6.91-6.994zm7.219 4.818c2.795 0 4.503-1.865 4.503-4.818 0-2.953-1.708-4.818-4.503-4.818h-.31c-2.795 0-4.503 1.865-4.503 4.818 0 2.953 1.708 4.818 4.503 4.818h.31zm23.522 1.942h-2.484c-.156 0-.233-.077-.311-.155a47.566 47.566 0 00-5.589-5.595h-1.087v5.595c0 .078-.078.156-.155.233h-1.941c-.078 0-.155-.077-.233-.155V6.473c0-.078.078-.156.155-.234h1.941c.078 0 .155.078.233.156v5.362h1.165c1.863-1.632 3.57-3.42 5.045-5.362.078-.078.156-.156.311-.156h2.329c.077 0 .155.078.155.156 0 .077 0 .077-.078.155a45.2 45.2 0 01-5.977 6.217A54.267 54.267 0 01128 19.45c0 .155 0 .31-.155.31z"></path></g><defs><clipPath id="ptjarurgfo-clip0"><path fill="#fff" transform="translate(1 6)" d="M0 0h127v14H0z"></path></clipPath></defs></svg>