<svg class="h-8 hidden md:block" alt="Google logo white edited" xmlns="http://www.w3.org/2000/svg" fill="none" viewBox="0 0 76 32"><title>Google logo white edited</title><g clip-path="url(#umgqnmxifj-clip0)" fill="#fff"><path d="M18.948 9.476h-8.519v2.535h6.041c-.298 3.553-3.247 5.069-6.03 5.069a6.742 6.742 0 01-4.729-2.01 6.779 6.779 0 01.006-9.524 6.742 6.742 0 014.73-2.004 6.547 6.547 0 014.555 1.832l1.77-1.838a8.995 8.995 0 00-6.414-2.535 9.265 9.265 0 00-6.626 2.731 9.313 9.313 0 00-2.715 6.647 9.333 9.333 0 002.81 6.607 9.285 9.285 0 006.665 2.635c4.971 0 8.61-3.415 8.61-8.464a7.616 7.616 0 00-.154-1.68zM25.925 7.642a5.957 5.957 0 00-3.308 1.017 5.982 5.982 0 00-2.19 2.687 6 6 0 001.298 6.512 5.964 5.964 0 006.495 1.302 5.972 5.972 0 002.68-2.196 5.996 5.996 0 001.014-3.317 5.928 5.928 0 00-1.727-4.274 5.896 5.896 0 00-4.262-1.73zm.035 2.35a3.624 3.624 0 013.508 2.096 3.65 3.65 0 01-.653 4.04 3.63 3.63 0 01-3.987.88 3.633 3.633 0 01-1.662-1.345 3.649 3.649 0 01-.62-2.05 3.45 3.45 0 01.932-2.545 3.432 3.432 0 012.482-1.077v.002zM38.974 7.642a5.957 5.957 0 00-3.308 1.017 5.998 5.998 0 00-.892 9.2 5.963 5.963 0 006.495 1.3 5.972 5.972 0 002.68-2.195 5.996 5.996 0 001.014-3.317 5.926 5.926 0 00-1.726-4.274 5.897 5.897 0 00-4.263-1.73zm.035 2.35a3.624 3.624 0 013.508 2.096 3.65 3.65 0 01-.652 4.04 3.63 3.63 0 01-3.988.88 3.648 3.648 0 01-2.282-3.394 3.45 3.45 0 01.933-2.546 3.43 3.43 0 012.481-1.077v.002zM51.774 7.646a5.969 5.969 0 00-4.057 1.828 6 6 0 00-.038 8.278 5.969 5.969 0 004.04 1.865 3.934 3.934 0 003.275-1.454v1.18c0 2.065-1.25 3.3-3.136 3.3a3.304 3.304 0 01-3.055-2.13l-2.294.962a5.753 5.753 0 002.146 2.583 5.73 5.73 0 003.22.941c3.19 0 5.62-2.014 5.62-6.24V8.008h-2.502V9.02a4.221 4.221 0 00-3.22-1.375zm.232 2.347c1.573 0 3.188 1.346 3.188 3.646 0 2.338-1.612 3.626-3.223 3.626a3.382 3.382 0 01-2.414-1.099 3.4 3.4 0 01-.888-2.505 3.458 3.458 0 01.891-2.545 3.441 3.441 0 012.446-1.123zM68.621 7.632c-3.026 0-5.567 2.415-5.567 5.977a5.803 5.803 0 001.641 4.265 5.77 5.77 0 004.217 1.74 6.041 6.041 0 005-2.626l-2.064-1.377a3.345 3.345 0 01-2.927 1.648 3.063 3.063 0 01-2.927-1.817l8.004-3.33-.418-.978a5.418 5.418 0 00-1.944-2.514 5.396 5.396 0 00-3.015-.988zm.105 2.302a2.374 2.374 0 012.208 1.279l-5.344 2.24a3.334 3.334 0 01.837-2.415 3.316 3.316 0 012.298-1.104zM59.239 19.26h2.628V1.62h-2.628v17.64z"></path></g><defs><clipPath id="umgqnmxifj-clip0"><path fill="#fff" transform="translate(1 1)" d="M0 0h73v24H0z"></path></clipPath></defs></svg>