<svg class="max-w-full md:max-w-1/2 lg:max-w-full h-auto max-h-96 lg:max-h-full my-6 lg:my-0" alt="Fullstack Community" xmlns="http://www.w3.org/2000/svg" viewBox="0 0 258 240" fill="none" style="max-width: 380px;"><title>Fullstack Community</title><path d="M170.199 0.999996L257 120L170.199 239M85.7683 0.999993L172.569 120L85.7683 239M128.154 0.999994L214.955 120L128.154 239M43.3855 0.999991L130.187 120L43.3855 239M156.409 0.999996L243.21 120L156.409 239M71.6407 0.999992L158.442 120L71.6407 239M114.026 0.999994L200.827 120L114.026 239M29.2553 0.99999L116.056 120L29.2553 239M142.281 0.999995L229.082 120L142.281 239M57.5131 0.999991L144.314 120L57.5131 239M99.896 0.999993L186.697 120L99.8959 239M15.1276 0.999989L101.929 120L15.1276 239M1.00002 0.999989L87.8011 120L1.00001 239" stroke="url(#wndjdwmfox-paint0_linear_3_1940)" stroke-width="1.5"></path><defs><linearGradient id="wndjdwmfox-paint0_linear_3_1940" x1="257" y1="120" x2="-13.8998" y2="120" gradientUnits="userSpaceOnUse"><stop stop-color="white"></stop><stop offset="1" stop-color="white" stop-opacity="0"></stop></linearGradient></defs></svg>