<svg class="max-w-full md:max-w-1/2 lg:max-w-full h-auto max-h-96 lg:max-h-full my-6 lg:my-0" alt="Fullstack Reputation" xmlns="http://www.w3.org/2000/svg" viewBox="0 0 258 258" fill="none" style="max-width: 380px; margin-left: auto;"><title>Fullstack Reputation</title><path d="M180.644 136.843L255.668 148.015M178.794 144.76L251.081 167.622M175.687 152.306L243.534 186.267M171.469 159.335L233.176 203.432M166.216 165.624L220.228 218.822M160.001 171.025L205.134 231.992M153.046 175.317L188.043 242.646M145.499 178.498L169.546 250.489M137.657 180.496L150.013 255.298M129.444 181.162L130.036 257M121.231 180.644L110.059 255.668M113.24 178.794L90.452 251.081M105.694 175.687L71.7329 243.534M98.7387 171.469L54.5677 233.176M92.4497 166.216L39.178 220.228M87.0486 160.001L26.0821 205.134M82.6833 153.046L15.4278 188.043M79.5018 145.499L7.58498 169.546M77.578 137.657L2.70174 150.013M76.8382 129.444L1 130.036M77.4301 121.231L2.40578 110.059M79.2798 113.24L6.91908 90.452M82.3133 105.694L14.4659 71.7329M86.5306 98.7387L24.8982 54.5677M91.8578 92.4497L37.7723 39.178M98.0728 87.0486L52.9399 26.0821M105.028 82.6833L69.9573 15.4278M112.501 79.5018L88.5283 7.58498M120.417 77.578L108.061 2.70174M128.63 76.8382L128.038 1M136.843 77.4301L148.015 2.40578M144.76 79.2798L167.622 6.91908M152.306 82.3133L186.267 14.4659M159.335 86.5306L203.432 24.8982M165.624 91.8578L218.822 37.7723M171.025 98.0728L231.992 52.9399M175.317 105.028L242.646 69.9573M178.498 112.501L250.489 88.5283M180.496 120.417L255.298 108.061M181.162 128.63L257 128.038" stroke="url(#ztxnqtssay-paint0_radial_3_1941)" stroke-width="1.5" stroke-miterlimit="10"></path><defs><radialGradient id="ztxnqtssay-paint0_radial_3_1941" cx="0" cy="0" r="1" gradientUnits="userSpaceOnUse" gradientTransform="translate(129 129) rotate(90) scale(128)"><stop offset="0.399616" stop-color="white" stop-opacity="0"></stop><stop offset="1" stop-color="white"></stop></radialGradient></defs></svg>