<svg class="max-w-full md:max-w-1/2 lg:max-w-full h-auto max-h-96 lg:max-h-full my-6 lg:my-0" alt="Fullstack Method" xmlns="http://www.w3.org/2000/svg" viewBox="0 0 258 236" fill="none" style="max-width: 380px; margin-left: auto;"><title>Fullstack Method</title><path d="M242.509 214.148L242.509 192.674M242.509 171.2V149.798M242.509 128.325V106.851M242.509 85.3766V63.9753M242.509 42.4995V21.0252M229.8 236V214.526M229.8 193.123V171.649M229.8 150.174V128.773M229.8 107.3V85.8257M229.8 64.3515V42.9501M229.8 21.4744V2.00023e-05M217.086 214.148L217.086 192.674M217.085 171.2V149.798M217.085 128.325V106.851M217.085 85.3766V63.9753M217.085 42.4995V21.0252M204.376 236V214.526M204.377 193.126V171.651M204.377 150.177V128.776M204.377 107.303V85.8283M204.377 64.3535L204.377 42.9521M204.377 21.4771V0.00271859M191.667 214.151V192.677M191.667 171.203V149.801M191.667 128.328V106.854M191.667 85.3793V63.978M191.667 42.5029V21.0286M178.957 236V214.526M178.957 193.126L178.957 171.651M178.957 150.177V128.776M178.957 107.3V85.8257M178.957 64.3515V42.9501M178.957 21.4771L178.957 0.00271636M166.243 214.148V192.674M166.243 171.2V149.798M166.243 128.325V106.851M166.243 85.3766V63.9753M166.243 42.4995V21.0252M153.534 236V214.526M153.534 193.123L153.534 171.649M153.534 150.174V128.773M153.534 107.3V85.8257M153.534 64.3515V42.9501M153.534 21.4744L153.534 1.3335e-05M140.819 214.148L140.819 192.674M140.82 171.2V149.798M140.82 128.325V106.851M140.82 85.3766V63.9753M140.82 42.4995V21.0252M128.109 236V214.526M128.11 193.126V171.651M128.11 150.177L128.11 128.776M128.11 107.303V85.8283M128.11 64.3535L128.11 42.9521M128.11 21.4771V0.00271192M115.399 215.198V193.724M115.399 172.249V150.848M115.399 129.375V107.9M115.399 86.4256V65.0242M115.399 43.5512V22.0768M102.686 236V214.526M102.685 193.126V171.651M102.685 150.177L102.685 128.776M102.685 107.3V85.8256M102.685 64.3514L102.685 42.9501M102.685 21.4771V0.0027097M89.9763 215.195V193.721M89.9763 172.247V150.845M89.9763 129.372V107.898M89.9763 86.4235V65.0222M89.9763 43.5441V22.0697M77.2663 236V214.526M77.2666 193.126V171.651M77.2666 150.177L77.2666 128.776M77.2666 107.303V85.8283M77.2666 64.3535L77.2666 42.9521M77.2666 21.4771V0.00270747M64.5515 215.195L64.5515 193.721M64.552 172.247L64.552 150.845M64.552 129.367L64.552 107.893M64.552 86.4235L64.552 65.0222M64.552 43.5441L64.552 22.0697M51.8425 236L51.8425 214.526M51.8422 193.126V171.651M51.8422 150.177V128.776M51.8422 107.303V85.8283M51.8422 64.3535V42.9521M51.8422 21.4771V0.00270525M39.1331 215.195L39.1331 193.721M39.1337 172.247L39.1337 150.845M39.1337 129.367L39.1338 107.893M39.1338 86.4235L39.1338 65.0222M39.1338 43.5441L39.1338 22.0697M26.4186 236L26.4186 214.526M26.4192 193.126L26.4192 171.651M26.4192 150.177L26.4192 128.776M26.4192 107.303L26.4192 85.8283M26.4192 64.3535L26.4192 42.9521M26.4193 21.4771L26.4193 0.00270303M13.7094 215.195L13.7094 193.721M13.7094 172.247L13.7094 150.845M13.7094 129.367L13.7094 107.893M13.7095 86.4235L13.7095 65.0222M13.7095 43.5441L13.7095 22.0697M1.00033 236L1.00033 214.526M1 193.123L1 171.649M1 150.174L1.00001 128.773M1.00001 107.3L1.00001 85.8256M1.00001 64.3514L1.00001 42.9501M1.00002 21.4744L1.00002 0M257 236V214.526M257 193.123V171.649M257 150.174V128.773M257 107.3L257 85.8257M257 64.3515V42.9501M257 21.4744V2.23802e-05" stroke="url(#ntgpxrwpii-paint0_linear_3_1939)" stroke-width="1.5" stroke-miterlimit="10"></path><defs><linearGradient id="ntgpxrwpii-paint0_linear_3_1939" x1="0.999966" y1="118.277" x2="277.244" y2="118.277" gradientUnits="userSpaceOnUse"><stop stop-color="white"></stop><stop offset="1" stop-color="white" stop-opacity="0"></stop></linearGradient></defs></svg>